<?xml version="1.0" standalone="no"?>
<!DOCTYPE svg PUBLIC "-//W3C//DTD SVG 20010904//EN"
 "http://www.w3.org/TR/2001/REC-SVG-20010904/DTD/svg10.dtd">
<svg version="1.0" xmlns="http://www.w3.org/2000/svg"
 width="120.000000pt" height="120.000000pt" viewBox="0 0 120.000000 120.000000"
 preserveAspectRatio="xMidYMid meet">
<metadata>
Created by potrace 1.14, written by Peter Selinger 2001-2017
</metadata>
<g transform="translate(0.000000,120.000000) scale(0.100000,-0.100000)"
fill="#000000" stroke="none">
<path d="M580 1142 c0 -4 -21 -31 -46 -60 l-46 -51 -58 29 -58 29 -6 -22 c-3
-12 -6 -41 -6 -65 0 -39 -2 -42 -22 -38 -13 3 -40 8 -62 11 -37 6 -38 6 -32
-19 4 -18 2 -26 -11 -29 -17 -4 -17 -5 0 -6 19 -1 24 -21 5 -21 -6 0 -3 -7 8
-16 10 -8 14 -13 7 -10 -6 4 -14 2 -18 -4 -3 -5 -18 -10 -33 -10 -47 0 -55
-13 -27 -40 14 -13 23 -30 21 -37 -3 -7 -1 -12 5 -10 6 1 16 -5 22 -14 8 -13
4 -27 -16 -64 -24 -41 -25 -49 -12 -62 8 -8 15 -10 15 -4 0 19 16 12 29 -11 9
-19 10 -20 6 -3 -4 15 1 20 18 21 20 1 24 -4 26 -37 1 -27 -2 -39 -12 -39 -7
0 -23 -11 -35 -23 -23 -24 -24 -47 -6 -127 5 -23 44 -70 44 -53 0 4 9 -10 21
-31 11 -21 18 -45 15 -53 -3 -8 -2 -12 3 -9 5 3 15 -2 22 -11 12 -14 12 -16
-1 -8 -8 4 4 -9 28 -29 23 -21 42 -44 42 -52 0 -8 5 -14 11 -14 6 0 30 -14 55
-31 25 -17 58 -31 74 -31 17 -1 30 -5 30 -10 0 -4 5 -8 11 -8 5 0 8 4 5 8 -3
5 13 9 35 10 48 2 114 35 147 75 13 15 28 25 33 21 5 -3 9 0 9 6 0 6 4 9 9 5
5 -3 13 0 17 6 4 8 3 9 -4 5 -20 -12 -13 13 7 31 11 9 17 21 14 26 -4 6 0 8
10 4 11 -4 14 -2 10 9 -3 9 3 21 15 30 12 8 19 20 16 28 -3 7 3 19 12 27 10 8
15 9 11 2 -4 -6 -2 -15 5 -19 7 -4 10 -4 6 1 -4 4 -1 23 7 43 8 19 17 55 20
81 3 37 0 50 -17 68 -12 13 -27 23 -35 23 -9 0 -12 13 -11 40 1 23 5 36 8 29
6 -8 9 -8 14 2 5 11 7 11 12 2 3 -7 13 -13 22 -13 15 0 15 2 2 11 -12 9 -11
10 6 6 43 -9 47 7 15 61 -20 34 -26 52 -17 52 7 0 21 10 32 22 10 12 13 18 7
14 -7 -4 -13 -2 -13 3 0 6 4 11 9 11 5 0 16 11 25 25 16 25 16 25 -24 31 -24
4 -40 12 -40 20 0 8 -4 14 -10 14 -5 0 -10 9 -10 21 0 11 4 18 9 15 6 -4 6 5
2 21 -8 29 -9 29 -83 19 -38 -5 -38 -5 -40 32 0 20 -2 42 -3 47 -2 6 -3 18 -4
28 -1 15 -8 14 -60 -13 l-59 -30 -52 60 c-46 53 -80 75 -80 52z m420 -366 c0
-3 -4 -8 -10 -11 -5 -3 -10 -1 -10 4 0 6 5 11 10 11 6 0 10 -2 10 -4z"/>
<path d="M990 609 c0 -5 5 -7 10 -4 6 3 10 8 10 11 0 2 -4 4 -10 4 -5 0 -10
-5 -10 -11z"/>
<path d="M367 195 c10 -13 22 -25 27 -25 5 0 -1 11 -14 25 -30 32 -36 32 -13
0z"/>
<path d="M780 150 c-6 -11 -9 -20 -8 -20 2 0 11 9 21 20 9 11 13 20 7 20 -5 0
-14 -9 -20 -20z"/>
<path d="M490 91 c0 -6 4 -13 10 -16 6 -3 7 1 4 9 -7 18 -14 21 -14 7z"/>
<path d="M540 71 c0 -7 -5 -9 -12 -5 -7 5 -8 3 -3 -5 5 -9 10 -10 18 -2 6 6 8
14 4 18 -4 3 -7 1 -7 -6z"/>
<path d="M630 70 c0 -5 5 -10 10 -10 6 0 10 5 10 10 0 6 -4 10 -10 10 -5 0
-10 -4 -10 -10z"/>
</g>
</svg>
